<?xml version="1.0" encoding="utf-8"?>
<!-- Generator: Adobe Illustrator 24.2.1, SVG Export Plug-In . SVG Version: 6.00 Build 0)  -->
<svg version="1.1" xmlns="http://www.w3.org/2000/svg" xmlns:xlink="http://www.w3.org/1999/xlink" x="0px" y="0px"
	 viewBox="0 0 242.42 69.3" style="enable-background:new 0 0 242.42 69.3;" xml:space="preserve">
<style type="text/css">
	.st0{display:none;}
	.st1{fill:#005958;}
	.st2{fill:#72A492;}
	.st3{fill:none;stroke:#005958;stroke-width:0.5876;stroke-linecap:round;stroke-linejoin:round;stroke-miterlimit:10;}
	.st4{font-family:'Montserrat-Regular';}
	.st5{font-size:9px;}
</style>
<g id="Layer_3" class="st0">
</g>
<g id="Layer_4">
</g>
<g id="Layer_1">
	<g>
		<path class="st1" d="M32.35,60.83C19.92,60.83,9.8,49.09,9.8,34.65c0-14.44,10.12-26.18,22.55-26.18
			c12.44,0,22.55,11.74,22.55,26.18C54.9,49.09,44.79,60.83,32.35,60.83z M32.35,10.01c-11.58,0-21,11.05-21,24.64
			c0,13.59,9.42,24.64,21,24.64c11.58,0,21-11.06,21-24.64C53.35,21.06,43.93,10.01,32.35,10.01z"/>
		<path class="st1" d="M28.64,44.89c-5.22-1.35-10.34-1.97-15.08-1.93c2.05,6.41,6.41,11.5,11.88,13.88
			c3.59-3.17,8.11-6.05,13.29-8.36C35.62,47.05,32.24,45.82,28.64,44.89z"/>
		<path class="st1" d="M45.7,45.87c-4.72-3.15-10.55-5.77-17.06-7.46c-5.67-1.47-11.23-2.07-16.3-1.91
			c0.12,1.87,0.44,3.68,0.91,5.41c4.83-0.07,10.06,0.55,15.39,1.93c4.05,1.05,7.83,2.47,11.25,4.14c1.38-0.58,2.8-1.12,4.26-1.61
			C44.66,46.19,45.18,46.03,45.7,45.87z"/>
		<path class="st1" d="M44.94,39.19l0.31-21.54l-4.79,18.24l2.14,7.27l0.36,0.21c1.23,0.71,2.41,1.46,3.53,2.24
			c1.44-0.43,2.87-0.8,4.28-1.11c0.79-2.02,1.35-4.19,1.62-6.46C49.98,38.24,47.48,38.63,44.94,39.19z"/>
		<path class="st1" d="M26.64,57.3c0,0,0.8,0.3,1.99,0.57c0.67,0.15,1.46,0.28,2.3,0.36c0.36,0.03,0.74,0.07,1.12,0.07
			c0.43,0,0.9,0,1.42-0.04c0.51-0.03,1.06-0.09,1.62-0.18c2.02-0.31,4.46-1.06,6.97-2.66c0.73-0.47,1.33-0.89,2.06-1.52
			c0.05-0.04,0.42-0.36,0.46-0.4c0.47-0.4,0.78-0.73,1.25-1.21c0.53-0.54,1-1.09,1.43-1.65c0.61-0.78,1.08-1.48,1.52-2.19
			c1.01-1.65,1.57-2.98,1.57-2.98s-8.15,1.7-16.08,6.37C29.7,54.55,26.64,57.3,26.64,57.3z"/>
		<path class="st1" d="M22.78,36.22l0.34-21.75l-6.17,21.09C18.85,35.68,20.8,35.9,22.78,36.22z"/>
		<path class="st1" d="M30.93,38.15c1.13,0.35,2.24,0.72,3.33,1.12l0.33-20.55l-4.78,15.81L30.93,38.15z"/>
		<g>
			<g>
				<polygon class="st2" points="45.57,17.83 45.77,31.28 49.3,32.85 				"/>
				<path class="st2" d="M45.87,38.2c1.54-0.32,3.07-0.57,4.56-0.76l-0.83-3.34l-3.82-1.71L45.87,38.2z"/>
				<polygon class="st2" points="23.43,14.64 23.53,21.35 25.52,22.24 				"/>
				<polygon class="st2" points="23.62,27.16 27.34,28.82 25.87,23.5 23.54,22.46 				"/>
			</g>
			<path class="st2" d="M23.75,36.39c1.7,0.31,3.43,0.7,5.16,1.17c0.3,0.08,0.6,0.17,0.91,0.26l-2.13-7.73l-4.06-1.81L23.75,36.39z"
				/>
			<path class="st2" d="M35.21,39.64c2.25,0.88,4.37,1.87,6.36,2.95l-2.03-7.2l-4.43-1.98L35.21,39.64z"/>
			<polygon class="st2" points="34.89,18.89 35.1,32.29 39.19,34.11 			"/>
		</g>
		<path class="st1" d="M63.42,20.19c-0.7,1.61-1.24,2.83-1.57,3.48c-0.05,0.13-0.16,0.2-0.36,0.2c-0.23,0-0.78-0.09-1.03-0.21v-0.14
			c1.05-2.22,4.13-9.01,4.71-10.35l-0.23-0.54c0.34-0.09,0.88-0.18,1.1-0.18c0.23,0,0.34,0.13,0.41,0.29
			c0.81,1.91,2.36,5.8,3.06,7.46c0.72,1.66,1.13,2.74,1.44,3.39v0.09c-0.34,0.14-0.97,0.2-1.22,0.2c-0.21,0-0.32-0.11-0.5-0.56
			c-0.4-0.94-0.61-1.57-1.28-3.12H63.42z M67.58,19.18c-0.99-2.56-1.57-4.04-1.8-4.6c-0.65,1.46-1.22,2.79-1.96,4.6H67.58z"/>
		<path class="st1" d="M72.16,14.89c0-1.2-0.02-1.95-0.05-2.31c0.31-0.05,0.87-0.14,1.26-0.14c0.18,0,0.25,0.09,0.25,0.97v9.28
			c0.36,0.11,1.26,0.14,2.02,0.14c0.83,0,1.96-0.02,2.63-0.09l0.04,0.04c-0.09,0.45-0.38,0.85-0.81,1.01
			c-0.23,0.04-0.81,0.07-2.03,0.07c-1.44,0-2.54-0.07-3.03-0.18l-0.27-0.36V14.89z"/>
		<path class="st1" d="M79.41,15.02c0-0.96,0-1.48-0.05-2.34c0.29-0.07,1.33-0.27,2.56-0.27c3.14,0,3.41,1.93,3.41,2.77
			c0,0.9-0.48,1.71-1.23,2.22c1.43,0.47,2.15,1.77,2.15,2.99c0,2.44-1.86,3.55-4.31,3.55c-1.14-0.02-1.37-0.05-2.52-0.33V15.02z
			 M80.86,17.22c0.45-0.09,1.32-0.14,2.07-0.11c0.41-0.16,0.95-0.81,0.95-1.78c0-1.07-0.63-1.95-2.25-1.95
			c-0.27,0-0.56,0.04-0.77,0.07V17.22z M80.86,22.81c0.25,0.11,0.72,0.17,1.17,0.17c1.46,0,2.63-0.85,2.63-2.52
			c0-1.48-1.03-2.36-2.81-2.36c-0.38,0-0.72,0.02-0.99,0.07V22.81z"/>
		<path class="st1" d="M87.88,14.86c0-1.21-0.02-1.95-0.06-2.27c0.24-0.05,0.96-0.14,1.24-0.14c0.24,0,0.27,0.13,0.27,0.92v8.16
			c0,1.24,0.04,1.84,0.05,2.2c-0.27,0.09-0.96,0.14-1.24,0.14c-0.18,0-0.27-0.05-0.27-0.34V14.86z"/>
		<path class="st1" d="M96.71,12.23c3.8,0,5.69,2.95,5.69,5.8c0,3.16-1.95,6-5.68,6c-4.16,0-5.75-3.32-5.75-5.77
			c0-3.42,2.14-6.04,5.71-6.04H96.71z M96.63,13.24c-2.25,0-4.07,1.7-4.07,4.88c0,3.21,2.04,4.9,4.24,4.9
			c2.27,0,4.03-1.64,4.03-4.88c0-3.42-2.22-4.9-4.18-4.9H96.63z"/>
		<path class="st1" d="M104.12,13.33l-0.45-0.6v-0.14c0.21-0.05,1.03-0.14,1.3-0.14c0.13,0,0.29,0.11,0.45,0.31
			c0.6,0.76,2.47,3.33,4.37,5.91c0.92,1.3,1.69,2.34,2.18,3.31c-0.09-1.95-0.09-3.04-0.09-3.95v-4.99c0-0.42,0.09-0.49,0.32-0.52
			c0.5-0.07,0.61-0.07,0.94-0.07c-0.04,0.77-0.06,1.82-0.06,3.31v7.97c-0.09,0.09-0.66,0.27-0.99,0.27c-0.11,0-0.25-0.11-0.25-0.13
			c-1.24-1.66-3.05-4.15-4.58-6.24c-0.65-0.95-1.3-1.96-1.98-3.14c0.07,2.25,0.07,3.21,0.07,4.13v4.62c0,0.45-0.11,0.5-0.36,0.56
			c-0.27,0.06-0.63,0.07-0.92,0.07c0.04-0.72,0.05-1.77,0.05-3.28V13.33z"/>
		<path class="st1" d="M61.82,30.59c0-0.96-0.02-1.53-0.06-1.93c0.31-0.09,0.87-0.2,1.39-0.25h4.59c-0.11,0.47-0.25,0.7-0.43,0.88
			c-0.18,0.13-0.5,0.14-1.21,0.14h-2.83v4.33h4.16c-0.09,0.92-0.51,1.03-1.1,1.03h-3.06c0,2.05,0.02,3.5,0.05,4.85
			c-0.25,0.09-0.81,0.14-1.21,0.14c-0.18,0-0.31-0.05-0.31-0.31V30.59z"/>
		<path class="st1" d="M68.97,30.77c0-1.21-0.02-1.95-0.06-2.27c0.24-0.05,0.96-0.15,1.24-0.15c0.24,0,0.28,0.13,0.28,0.92v8.17
			c0,1.24,0.03,1.84,0.05,2.2c-0.27,0.09-0.95,0.14-1.25,0.14c-0.18,0-0.27-0.05-0.27-0.34V30.77z"/>
		<path class="st1" d="M72.81,29.24l-0.45-0.59V28.5c0.22-0.05,1.03-0.15,1.3-0.15c0.12,0,0.29,0.11,0.45,0.31
			c0.6,0.76,2.47,3.33,4.36,5.91c0.92,1.3,1.69,2.34,2.18,3.32c-0.09-1.95-0.09-3.05-0.09-3.95v-4.99c0-0.42,0.09-0.49,0.32-0.52
			c0.51-0.08,0.61-0.08,0.94-0.08c-0.03,0.78-0.05,1.82-0.05,3.32v7.97c-0.09,0.09-0.67,0.27-0.99,0.27c-0.11,0-0.25-0.11-0.25-0.13
			c-1.24-1.66-3.04-4.15-4.58-6.23c-0.65-0.95-1.3-1.96-1.98-3.14c0.07,2.25,0.07,3.21,0.07,4.13v4.61c0,0.45-0.11,0.5-0.36,0.56
			c-0.27,0.06-0.63,0.07-0.92,0.07c0.04-0.72,0.06-1.77,0.06-3.28V29.24z"/>
		<path class="st1" d="M85.97,36.11c-0.7,1.6-1.24,2.83-1.57,3.48c-0.05,0.13-0.16,0.2-0.36,0.2c-0.24,0-0.77-0.09-1.03-0.21v-0.15
			c1.05-2.22,4.13-9.01,4.71-10.34l-0.24-0.54c0.34-0.09,0.89-0.18,1.1-0.18c0.23,0,0.34,0.12,0.41,0.29
			c0.81,1.91,2.36,5.8,3.06,7.46c0.72,1.66,1.14,2.74,1.44,3.39v0.09c-0.34,0.14-0.97,0.2-1.23,0.2c-0.22,0-0.32-0.11-0.5-0.56
			c-0.4-0.94-0.61-1.57-1.28-3.12H85.97z M90.14,35.1c-0.99-2.56-1.57-4.04-1.8-4.6c-0.65,1.46-1.23,2.8-1.97,4.6H90.14z"/>
		<path class="st1" d="M94.8,29.24l-0.45-0.59V28.5c0.22-0.05,1.03-0.15,1.3-0.15c0.13,0,0.29,0.11,0.45,0.31
			c0.59,0.76,2.47,3.33,4.36,5.91c0.92,1.3,1.69,2.34,2.18,3.32c-0.09-1.95-0.09-3.05-0.09-3.95v-4.99c0-0.42,0.09-0.49,0.32-0.52
			c0.5-0.08,0.61-0.08,0.94-0.08c-0.03,0.78-0.05,1.82-0.05,3.32v7.97c-0.09,0.09-0.67,0.27-0.99,0.27c-0.11,0-0.25-0.11-0.25-0.13
			c-1.24-1.66-3.05-4.15-4.58-6.23c-0.65-0.95-1.3-1.96-1.98-3.14c0.07,2.25,0.07,3.21,0.07,4.13v4.61c0,0.45-0.11,0.5-0.36,0.56
			c-0.27,0.06-0.63,0.07-0.92,0.07c0.03-0.72,0.05-1.77,0.05-3.28V29.24z"/>
		<path class="st1" d="M114.68,38.38c-0.07,0.45-0.27,0.81-0.53,1.04c-0.38,0.27-1.37,0.52-2.54,0.52c-4,0-6.15-2.44-6.15-5.84
			c0-1.5,0.49-3.19,1.87-4.43c1.23-1.1,2.67-1.53,4.31-1.53c1.71,0,2.88,0.59,3.19,0.97c0,0.27-0.11,0.52-0.27,0.67
			c-0.12,0.13-0.32,0.11-0.65-0.04c-0.56-0.3-1.39-0.54-2.38-0.54c-2.36,0-4.51,1.71-4.51,4.81c0,2.77,1.69,4.85,4.85,4.85
			c1.1,0,2.25-0.29,2.74-0.51L114.68,38.38z"/>
		<path class="st1" d="M116.08,30.77c0-1.21-0.02-1.95-0.05-2.27c0.23-0.05,0.96-0.15,1.25-0.15c0.23,0,0.27,0.13,0.27,0.92v8.17
			c0,1.24,0.03,1.84,0.05,2.2c-0.27,0.09-0.95,0.14-1.24,0.14c-0.18,0-0.27-0.05-0.27-0.34V30.77z"/>
		<path class="st1" d="M121.71,36.11c-0.7,1.6-1.24,2.83-1.57,3.48c-0.06,0.13-0.16,0.2-0.36,0.2c-0.23,0-0.78-0.09-1.03-0.21v-0.15
			c1.05-2.22,4.13-9.01,4.7-10.34l-0.23-0.54c0.35-0.09,0.88-0.18,1.1-0.18c0.23,0,0.34,0.12,0.41,0.29
			c0.82,1.91,2.36,5.8,3.07,7.46c0.72,1.66,1.14,2.74,1.44,3.39v0.09c-0.34,0.14-0.97,0.2-1.23,0.2c-0.22,0-0.32-0.11-0.5-0.56
			c-0.4-0.94-0.61-1.57-1.28-3.12H121.71z M125.87,35.1c-0.99-2.56-1.57-4.04-1.8-4.6c-0.65,1.46-1.22,2.8-1.96,4.6H125.87z"/>
		<path class="st1" d="M130.45,30.81c0-1.21-0.02-1.95-0.05-2.31c0.3-0.05,0.86-0.15,1.26-0.15c0.18,0,0.25,0.09,0.25,0.97v9.28
			c0.36,0.11,1.26,0.14,2.02,0.14c0.83,0,1.96-0.02,2.63-0.09l0.04,0.04c-0.09,0.45-0.38,0.85-0.81,1.01
			c-0.23,0.03-0.81,0.07-2.03,0.07c-1.44,0-2.54-0.07-3.03-0.18l-0.27-0.36V30.81z"/>
		<path class="st1" d="M69.6,52.63c0-0.83,0-1.44-0.09-2c0.32-0.09,0.93-0.27,1.28-0.27c0.16,0,0.25,0.11,0.25,0.49v4
			c-0.24,0.2-0.83,0.53-1.21,0.7c-0.56,0.18-1.3,0.31-2.31,0.31c-3.19,0-6.36-1.53-6.36-5.82c0-2.34,1.12-3.88,2.15-4.71
			c0.95-0.77,2.36-1.28,4.09-1.28c2.23,0,3.37,0.81,3.64,1.08c0,0.27-0.11,0.48-0.25,0.65c-0.15,0.18-0.35,0.13-0.65-0.02
			c-0.83-0.47-1.87-0.67-2.86-0.67c-2.6,0-4.54,1.88-4.54,4.81c0,3.58,2.58,4.94,4.92,4.94c0.74,0,1.49-0.09,1.94-0.3V52.63z"/>
		<path class="st1" d="M73.03,46.38c0-0.88,0-1.32-0.04-1.89c0.52-0.11,1.6-0.25,2.52-0.25c2.33,0,3.89,0.81,3.89,3.26
			c0,1.78-1.41,2.67-1.88,2.95c0.29,0.52,0.71,1.19,1.61,2.52c1.08,1.62,1.6,2.2,1.95,2.5l-0.02,0.07
			c-0.14,0.11-0.67,0.18-1.01,0.18c-0.47,0-0.86-0.16-1.3-0.74c-0.54-0.67-1.02-1.46-2.38-3.62c-0.29-0.48-0.4-0.54-0.8-0.56h-1.13
			v4.38c0,0.33-0.05,0.42-0.31,0.45c-0.49,0.05-0.99,0.05-1.17,0.05c0.03-0.72,0.06-1.78,0.06-3.28V46.38z M74.45,49.87
			c0.36,0.06,1.86,0.04,2.11-0.05c0.6-0.22,1.34-0.95,1.34-2.27c0-1.8-1.17-2.34-2.34-2.34c-0.38,0-0.85,0.02-1.1,0.09V49.87z"/>
		<path class="st1" d="M86.69,44.05c3.81,0,5.7,2.96,5.7,5.8c0,3.15-1.94,6-5.68,6c-4.16,0-5.75-3.32-5.75-5.77
			c0-3.42,2.15-6.04,5.71-6.04H86.69z M86.62,45.06c-2.25,0-4.07,1.7-4.07,4.89c0,3.21,2.03,4.9,4.24,4.9
			c2.27,0,4.04-1.64,4.04-4.88c0-3.42-2.22-4.9-4.18-4.9H86.62z"/>
		<path class="st1" d="M95.41,50.16c0,3.91,1.77,4.59,3.19,4.59c1.75,0,3.23-1.01,3.23-4.92v-5.05c0-0.34,0.15-0.41,0.32-0.45
			c0.54-0.05,0.69-0.07,1.05-0.07c-0.03,0.7-0.05,1.77-0.05,3.26v2.34c0,5.12-2.52,5.98-4.65,5.98c-2.83,0-4.54-1.46-4.54-5.82
			v-3.32c0-1.21-0.02-1.95-0.05-2.31c0.23-0.05,0.94-0.14,1.21-0.14c0.28,0,0.3,0.09,0.3,0.95V50.16z"/>
		<path class="st1" d="M105.36,46.86c0-0.86,0-1.6-0.07-2.41c0.53-0.09,1.55-0.22,2.54-0.22c2.45,0,4.27,0.94,4.27,3.46
			c0,2.54-2.09,3.42-3.28,3.37c-0.25,0-0.5-0.05-0.63-0.14c-0.21-0.11-0.41-0.47-0.41-0.79c0.16,0.02,0.32,0.04,0.54,0.04
			c0.7,0,2.23-0.38,2.23-2.4c0-2.22-1.6-2.52-2.72-2.52c-0.36,0-0.67,0-1.01,0.05v8.07c0,1.26,0.03,1.82,0.05,2.18
			c-0.25,0.09-0.87,0.14-1.21,0.14c-0.18,0-0.31-0.05-0.31-0.32V46.86z"/>
	</g>
	<line class="st3" x1="148.35" y1="8.47" x2="148.35" y2="60.83"/>
</g>
<g id="Layer_2">
	<text transform="matrix(1 0 0 1 160.5209 26.5033)"><tspan x="0" y="0" class="st1 st4 st5">Guiding Clients </tspan><tspan x="0" y="10.8" class="st1 st4 st5">To A Lifetime of </tspan><tspan x="0" y="21.6" class="st1 st4 st5">Good Decisions</tspan></text>
</g>
</svg>
